<mxfile host="app.diagrams.net" agent="Mozilla/5.0 (Macintosh; Intel Mac OS X 10_15_7) AppleWebKit/605.1.15 (KHTML, like Gecko) Version/18.0.1 Safari/605.1.15" version="24.8.3">
  <diagram name="Pagina-1" id="EkfTAN4hH_TVddPuiA1x">
    <mxGraphModel dx="1719" dy="565" grid="1" gridSize="10" guides="1" tooltips="1" connect="1" arrows="1" fold="1" page="1" pageScale="1" pageWidth="827" pageHeight="1169" math="0" shadow="0">
      <root>
        <mxCell id="0" />
        <mxCell id="1" parent="0" />
        <mxCell id="Gjo6DUxktxaH3FMSYRhE-1" value="Personale medico" style="rounded=0;whiteSpace=wrap;html=1;" parent="1" vertex="1">
          <mxGeometry x="35" y="440" width="120" height="60" as="geometry" />
        </mxCell>
        <mxCell id="Gjo6DUxktxaH3FMSYRhE-2" value="Medici" style="rounded=0;whiteSpace=wrap;html=1;" parent="1" vertex="1">
          <mxGeometry x="201" y="600" width="120" height="60" as="geometry" />
        </mxCell>
        <mxCell id="Gjo6DUxktxaH3FMSYRhE-3" value="Chirurgi" style="rounded=0;whiteSpace=wrap;html=1;" parent="1" vertex="1">
          <mxGeometry x="40" y="600" width="120" height="60" as="geometry" />
        </mxCell>
        <mxCell id="Gjo6DUxktxaH3FMSYRhE-5" value="Pazienti" style="rounded=0;whiteSpace=wrap;html=1;" parent="1" vertex="1">
          <mxGeometry x="800" y="760" width="120" height="60" as="geometry" />
        </mxCell>
        <mxCell id="Gjo6DUxktxaH3FMSYRhE-6" value="Maggiorenne" style="rounded=0;whiteSpace=wrap;html=1;" parent="1" vertex="1">
          <mxGeometry x="720" y="880" width="120" height="60" as="geometry" />
        </mxCell>
        <mxCell id="Gjo6DUxktxaH3FMSYRhE-7" value="Minorenne" style="rounded=0;whiteSpace=wrap;html=1;" parent="1" vertex="1">
          <mxGeometry x="880" y="880" width="120" height="60" as="geometry" />
        </mxCell>
        <mxCell id="Gjo6DUxktxaH3FMSYRhE-8" value="Reparti" style="rounded=0;whiteSpace=wrap;html=1;" parent="1" vertex="1">
          <mxGeometry x="440" y="300" width="120" height="60" as="geometry" />
        </mxCell>
        <mxCell id="Gjo6DUxktxaH3FMSYRhE-10" value="Camere" style="rounded=0;whiteSpace=wrap;html=1;" parent="1" vertex="1">
          <mxGeometry x="1000" y="300" width="120" height="60" as="geometry" />
        </mxCell>
        <mxCell id="Gjo6DUxktxaH3FMSYRhE-11" value="Sale operatorie" style="rounded=0;whiteSpace=wrap;html=1;" parent="1" vertex="1">
          <mxGeometry x="-149" y="786" width="120" height="60" as="geometry" />
        </mxCell>
        <mxCell id="Gjo6DUxktxaH3FMSYRhE-14" value="Attrezzatura medica" style="rounded=0;whiteSpace=wrap;html=1;" parent="1" vertex="1">
          <mxGeometry x="315" y="440" width="120" height="60" as="geometry" />
        </mxCell>
        <mxCell id="Gjo6DUxktxaH3FMSYRhE-15" value="Farmaci" style="rounded=0;whiteSpace=wrap;html=1;" parent="1" vertex="1">
          <mxGeometry x="315" y="887" width="120" height="60" as="geometry" />
        </mxCell>
        <mxCell id="Gjo6DUxktxaH3FMSYRhE-17" value="Cartella clinica" style="rounded=0;whiteSpace=wrap;html=1;" parent="1" vertex="1">
          <mxGeometry x="600" y="600" width="120" height="60" as="geometry" />
        </mxCell>
        <mxCell id="GProfhIi8R3kbPbWlugL-2" value="" style="endArrow=none;html=1;rounded=0;" parent="1" edge="1">
          <mxGeometry width="50" height="50" relative="1" as="geometry">
            <mxPoint x="100" y="540" as="sourcePoint" />
            <mxPoint x="99.91999999999999" y="540" as="targetPoint" />
          </mxGeometry>
        </mxCell>
        <mxCell id="GProfhIi8R3kbPbWlugL-6" value="" style="shape=flexArrow;endArrow=classic;html=1;rounded=0;fillColor=#000000;fillStyle=auto;" parent="1" edge="1">
          <mxGeometry width="50" height="50" relative="1" as="geometry">
            <mxPoint x="99.57" y="560" as="sourcePoint" />
            <mxPoint x="99.57" y="500" as="targetPoint" />
          </mxGeometry>
        </mxCell>
        <mxCell id="GProfhIi8R3kbPbWlugL-7" value="" style="endArrow=none;html=1;rounded=0;" parent="1" edge="1">
          <mxGeometry width="50" height="50" relative="1" as="geometry">
            <mxPoint x="779.8" y="880" as="sourcePoint" />
            <mxPoint x="779.8" y="860" as="targetPoint" />
          </mxGeometry>
        </mxCell>
        <mxCell id="GProfhIi8R3kbPbWlugL-8" value="" style="endArrow=none;html=1;rounded=0;" parent="1" edge="1">
          <mxGeometry width="50" height="50" relative="1" as="geometry">
            <mxPoint x="939.8" y="880" as="sourcePoint" />
            <mxPoint x="939.8" y="860" as="targetPoint" />
          </mxGeometry>
        </mxCell>
        <mxCell id="GProfhIi8R3kbPbWlugL-10" value="" style="shape=flexArrow;endArrow=classic;html=1;rounded=0;fillColor=#000000;" parent="1" edge="1">
          <mxGeometry width="50" height="50" relative="1" as="geometry">
            <mxPoint x="860" y="860" as="sourcePoint" />
            <mxPoint x="860" y="820" as="targetPoint" />
          </mxGeometry>
        </mxCell>
        <mxCell id="GProfhIi8R3kbPbWlugL-11" value="lavora" style="shape=rhombus;perimeter=rhombusPerimeter;whiteSpace=wrap;html=1;align=center;" parent="1" vertex="1">
          <mxGeometry x="35" y="300" width="120" height="60" as="geometry" />
        </mxCell>
        <mxCell id="GProfhIi8R3kbPbWlugL-13" value="operano" style="shape=rhombus;perimeter=rhombusPerimeter;whiteSpace=wrap;html=1;align=center;" parent="1" vertex="1">
          <mxGeometry x="40" y="760" width="120" height="60" as="geometry" />
        </mxCell>
        <mxCell id="GProfhIi8R3kbPbWlugL-16" value="fatte" style="shape=rhombus;perimeter=rhombusPerimeter;whiteSpace=wrap;html=1;align=center;" parent="1" vertex="1">
          <mxGeometry x="-150" y="915" width="120" height="60" as="geometry" />
        </mxCell>
        <mxCell id="GProfhIi8R3kbPbWlugL-19" value="scritta/letta" style="shape=rhombus;perimeter=rhombusPerimeter;whiteSpace=wrap;html=1;align=center;" parent="1" vertex="1">
          <mxGeometry x="400" y="600" width="120" height="60" as="geometry" />
        </mxCell>
        <mxCell id="GProfhIi8R3kbPbWlugL-20" value="curato" style="shape=rhombus;perimeter=rhombusPerimeter;whiteSpace=wrap;html=1;align=center;" parent="1" vertex="1">
          <mxGeometry x="1000" y="760" width="120" height="60" as="geometry" />
        </mxCell>
        <mxCell id="GProfhIi8R3kbPbWlugL-22" value="utilizzano" style="shape=rhombus;perimeter=rhombusPerimeter;whiteSpace=wrap;html=1;align=center;" parent="1" vertex="1">
          <mxGeometry x="180" y="440" width="120" height="60" as="geometry" />
        </mxCell>
        <mxCell id="GProfhIi8R3kbPbWlugL-32" value="hanno" style="shape=rhombus;perimeter=rhombusPerimeter;whiteSpace=wrap;html=1;align=center;" parent="1" vertex="1">
          <mxGeometry x="600" y="750" width="120" height="60" as="geometry" />
        </mxCell>
        <mxCell id="GProfhIi8R3kbPbWlugL-53" value="situate" style="shape=rhombus;perimeter=rhombusPerimeter;whiteSpace=wrap;html=1;align=center;" parent="1" vertex="1">
          <mxGeometry x="799" y="290.06" width="120" height="60" as="geometry" />
        </mxCell>
        <mxCell id="GProfhIi8R3kbPbWlugL-62" value="sottoposte" style="shape=rhombus;perimeter=rhombusPerimeter;whiteSpace=wrap;html=1;align=center;" parent="1" vertex="1">
          <mxGeometry x="435" y="1050" width="120" height="60" as="geometry" />
        </mxCell>
        <mxCell id="EqLmaS4XHGkuEMbsUwe7-9" value="" style="endArrow=none;html=1;rounded=0;" parent="1" edge="1">
          <mxGeometry width="50" height="50" relative="1" as="geometry">
            <mxPoint x="780" y="860" as="sourcePoint" />
            <mxPoint x="940" y="860" as="targetPoint" />
          </mxGeometry>
        </mxCell>
        <mxCell id="EqLmaS4XHGkuEMbsUwe7-10" value="" style="endArrow=none;html=1;rounded=0;" parent="1" edge="1">
          <mxGeometry width="50" height="50" relative="1" as="geometry">
            <mxPoint x="261" y="600" as="sourcePoint" />
            <mxPoint x="261" y="560" as="targetPoint" />
          </mxGeometry>
        </mxCell>
        <mxCell id="EqLmaS4XHGkuEMbsUwe7-11" value="" style="endArrow=none;html=1;rounded=0;" parent="1" edge="1">
          <mxGeometry width="50" height="50" relative="1" as="geometry">
            <mxPoint x="100" y="600" as="sourcePoint" />
            <mxPoint x="100" y="560" as="targetPoint" />
          </mxGeometry>
        </mxCell>
        <mxCell id="EqLmaS4XHGkuEMbsUwe7-13" value="" style="endArrow=none;html=1;rounded=0;" parent="1" edge="1">
          <mxGeometry width="50" height="50" relative="1" as="geometry">
            <mxPoint x="100" y="560" as="sourcePoint" />
            <mxPoint x="260" y="560" as="targetPoint" />
          </mxGeometry>
        </mxCell>
        <mxCell id="EqLmaS4XHGkuEMbsUwe7-21" value="" style="endArrow=none;html=1;rounded=0;entryX=0;entryY=0.5;entryDx=0;entryDy=0;exitX=1;exitY=0.5;exitDx=0;exitDy=0;startArrow=none;" parent="1" source="GProfhIi8R3kbPbWlugL-11" target="Gjo6DUxktxaH3FMSYRhE-8" edge="1">
          <mxGeometry width="50" height="50" relative="1" as="geometry">
            <mxPoint x="284.5" y="330.05999999999995" as="sourcePoint" />
            <mxPoint x="330" y="280" as="targetPoint" />
          </mxGeometry>
        </mxCell>
        <mxCell id="EqLmaS4XHGkuEMbsUwe7-23" value="" style="endArrow=none;html=1;rounded=0;startArrow=none;" parent="1" source="GProfhIi8R3kbPbWlugL-12" edge="1">
          <mxGeometry width="50" height="50" relative="1" as="geometry">
            <mxPoint x="380" y="470" as="sourcePoint" />
            <mxPoint x="520" y="470" as="targetPoint" />
          </mxGeometry>
        </mxCell>
        <mxCell id="EqLmaS4XHGkuEMbsUwe7-24" value="" style="endArrow=none;html=1;rounded=0;entryX=0.5;entryY=1;entryDx=0;entryDy=0;startArrow=none;" parent="1" source="GProfhIi8R3kbPbWlugL-12" edge="1">
          <mxGeometry width="50" height="50" relative="1" as="geometry">
            <mxPoint x="520" y="470" as="sourcePoint" />
            <mxPoint x="520" y="360" as="targetPoint" />
          </mxGeometry>
        </mxCell>
        <mxCell id="EqLmaS4XHGkuEMbsUwe7-29" value="" style="endArrow=none;html=1;rounded=0;entryX=0;entryY=0.5;entryDx=0;entryDy=0;" parent="1" target="GProfhIi8R3kbPbWlugL-53" edge="1">
          <mxGeometry width="50" height="50" relative="1" as="geometry">
            <mxPoint x="560" y="320" as="sourcePoint" />
            <mxPoint x="830" y="320" as="targetPoint" />
          </mxGeometry>
        </mxCell>
        <mxCell id="EqLmaS4XHGkuEMbsUwe7-32" value="" style="endArrow=none;html=1;rounded=0;entryX=0;entryY=0.5;entryDx=0;entryDy=0;" parent="1" target="GProfhIi8R3kbPbWlugL-20" edge="1">
          <mxGeometry width="50" height="50" relative="1" as="geometry">
            <mxPoint x="920" y="790" as="sourcePoint" />
            <mxPoint x="970" y="740" as="targetPoint" />
          </mxGeometry>
        </mxCell>
        <mxCell id="EqLmaS4XHGkuEMbsUwe7-37" value="" style="endArrow=none;html=1;rounded=0;entryX=0;entryY=0.5;entryDx=0;entryDy=0;" parent="1" target="Gjo6DUxktxaH3FMSYRhE-17" edge="1">
          <mxGeometry width="50" height="50" relative="1" as="geometry">
            <mxPoint x="520" y="630" as="sourcePoint" />
            <mxPoint x="570" y="580" as="targetPoint" />
          </mxGeometry>
        </mxCell>
        <mxCell id="EqLmaS4XHGkuEMbsUwe7-38" value="" style="endArrow=none;html=1;rounded=0;entryX=0.5;entryY=1;entryDx=0;entryDy=0;" parent="1" target="Gjo6DUxktxaH3FMSYRhE-17" edge="1">
          <mxGeometry width="50" height="50" relative="1" as="geometry">
            <mxPoint x="660" y="750" as="sourcePoint" />
            <mxPoint x="710" y="710" as="targetPoint" />
          </mxGeometry>
        </mxCell>
        <mxCell id="EqLmaS4XHGkuEMbsUwe7-41" value="" style="endArrow=none;html=1;rounded=0;" parent="1" edge="1">
          <mxGeometry width="50" height="50" relative="1" as="geometry">
            <mxPoint x="740" y="770" as="sourcePoint" />
            <mxPoint x="800" y="770" as="targetPoint" />
          </mxGeometry>
        </mxCell>
        <mxCell id="EqLmaS4XHGkuEMbsUwe7-42" value="" style="endArrow=none;html=1;rounded=0;" parent="1" edge="1">
          <mxGeometry width="50" height="50" relative="1" as="geometry">
            <mxPoint x="740" y="810" as="sourcePoint" />
            <mxPoint x="800" y="810" as="targetPoint" />
          </mxGeometry>
        </mxCell>
        <mxCell id="EqLmaS4XHGkuEMbsUwe7-46" value="" style="endArrow=none;html=1;rounded=0;entryX=1;entryY=0.5;entryDx=0;entryDy=0;" parent="1" edge="1">
          <mxGeometry width="50" height="50" relative="1" as="geometry">
            <mxPoint x="680" y="800" as="sourcePoint" />
            <mxPoint x="740" y="770" as="targetPoint" />
          </mxGeometry>
        </mxCell>
        <mxCell id="EqLmaS4XHGkuEMbsUwe7-47" value="" style="endArrow=none;html=1;rounded=0;" parent="1" edge="1">
          <mxGeometry width="50" height="50" relative="1" as="geometry">
            <mxPoint x="680" y="840" as="sourcePoint" />
            <mxPoint x="740" y="810" as="targetPoint" />
          </mxGeometry>
        </mxCell>
        <mxCell id="EqLmaS4XHGkuEMbsUwe7-48" value="" style="endArrow=none;html=1;rounded=0;" parent="1" edge="1">
          <mxGeometry width="50" height="50" relative="1" as="geometry">
            <mxPoint x="680" y="1080" as="sourcePoint" />
            <mxPoint x="680" y="840" as="targetPoint" />
          </mxGeometry>
        </mxCell>
        <mxCell id="EqLmaS4XHGkuEMbsUwe7-52" value="" style="endArrow=none;html=1;rounded=0;" parent="1" edge="1">
          <mxGeometry width="50" height="50" relative="1" as="geometry">
            <mxPoint x="555" y="1079.66" as="sourcePoint" />
            <mxPoint x="680" y="1080" as="targetPoint" />
          </mxGeometry>
        </mxCell>
        <mxCell id="EqLmaS4XHGkuEMbsUwe7-63" value="" style="endArrow=none;html=1;rounded=0;entryX=0.5;entryY=1;entryDx=0;entryDy=0;" parent="1" target="GProfhIi8R3kbPbWlugL-13" edge="1">
          <mxGeometry width="50" height="50" relative="1" as="geometry">
            <mxPoint x="100" y="920" as="sourcePoint" />
            <mxPoint x="150" y="870" as="targetPoint" />
          </mxGeometry>
        </mxCell>
        <mxCell id="EqLmaS4XHGkuEMbsUwe7-75" value="nome" style="text;html=1;align=center;verticalAlign=middle;resizable=0;points=[];autosize=1;strokeColor=none;fillColor=none;" parent="1" vertex="1">
          <mxGeometry x="-33" y="402" width="50" height="30" as="geometry" />
        </mxCell>
        <mxCell id="EqLmaS4XHGkuEMbsUwe7-76" value="cognome" style="text;html=1;align=center;verticalAlign=middle;resizable=0;points=[];autosize=1;strokeColor=none;fillColor=none;" parent="1" vertex="1">
          <mxGeometry x="-2.5" y="380.06" width="70" height="30" as="geometry" />
        </mxCell>
        <mxCell id="EqLmaS4XHGkuEMbsUwe7-77" value="id camera" style="text;html=1;align=center;verticalAlign=middle;resizable=0;points=[];autosize=1;strokeColor=none;fillColor=none;" parent="1" vertex="1">
          <mxGeometry x="1085" y="237" width="80" height="30" as="geometry" />
        </mxCell>
        <mxCell id="EqLmaS4XHGkuEMbsUwe7-78" value="num letti" style="text;html=1;align=center;verticalAlign=middle;resizable=0;points=[];autosize=1;strokeColor=none;fillColor=none;" parent="1" vertex="1">
          <mxGeometry x="1070" y="397" width="70" height="30" as="geometry" />
        </mxCell>
        <mxCell id="EqLmaS4XHGkuEMbsUwe7-79" value="nome" style="text;html=1;align=center;verticalAlign=middle;resizable=0;points=[];autosize=1;strokeColor=none;fillColor=none;" parent="1" vertex="1">
          <mxGeometry x="760" y="708" width="50" height="30" as="geometry" />
        </mxCell>
        <mxCell id="EqLmaS4XHGkuEMbsUwe7-80" value="cognome" style="text;html=1;align=center;verticalAlign=middle;resizable=0;points=[];autosize=1;strokeColor=none;fillColor=none;" parent="1" vertex="1">
          <mxGeometry x="799" y="696" width="70" height="30" as="geometry" />
        </mxCell>
        <mxCell id="EqLmaS4XHGkuEMbsUwe7-81" value="data&amp;nbsp;&lt;div&gt;nascita&lt;/div&gt;" style="text;html=1;align=center;verticalAlign=middle;resizable=0;points=[];autosize=1;strokeColor=none;fillColor=none;" parent="1" vertex="1">
          <mxGeometry x="895" y="680" width="60" height="40" as="geometry" />
        </mxCell>
        <mxCell id="EqLmaS4XHGkuEMbsUwe7-82" value="comune&amp;nbsp;&lt;div&gt;nascita&lt;/div&gt;" style="text;html=1;align=center;verticalAlign=middle;resizable=0;points=[];autosize=1;strokeColor=none;fillColor=none;" parent="1" vertex="1">
          <mxGeometry x="945" y="730" width="70" height="40" as="geometry" />
        </mxCell>
        <mxCell id="EqLmaS4XHGkuEMbsUwe7-83" value="sesso" style="text;html=1;align=center;verticalAlign=middle;resizable=0;points=[];autosize=1;strokeColor=none;fillColor=none;" parent="1" vertex="1">
          <mxGeometry x="720" y="730" width="50" height="30" as="geometry" />
        </mxCell>
        <mxCell id="EqLmaS4XHGkuEMbsUwe7-87" value="c.f." style="text;html=1;align=center;verticalAlign=middle;resizable=0;points=[];autosize=1;strokeColor=none;fillColor=none;" parent="1" vertex="1">
          <mxGeometry x="860" y="718" width="40" height="30" as="geometry" />
        </mxCell>
        <mxCell id="EqLmaS4XHGkuEMbsUwe7-92" value="nome" style="text;html=1;align=center;verticalAlign=middle;resizable=0;points=[];autosize=1;strokeColor=none;fillColor=none;" parent="1" vertex="1">
          <mxGeometry x="255" y="936" width="50" height="30" as="geometry" />
        </mxCell>
        <mxCell id="EqLmaS4XHGkuEMbsUwe7-93" value="effetti" style="text;html=1;align=center;verticalAlign=middle;resizable=0;points=[];autosize=1;strokeColor=none;fillColor=none;" parent="1" vertex="1">
          <mxGeometry x="315" y="982" width="50" height="30" as="geometry" />
        </mxCell>
        <mxCell id="EqLmaS4XHGkuEMbsUwe7-94" value="controindicazioni" style="text;html=1;align=center;verticalAlign=middle;resizable=0;points=[];autosize=1;strokeColor=none;fillColor=none;" parent="1" vertex="1">
          <mxGeometry x="380" y="982" width="110" height="30" as="geometry" />
        </mxCell>
        <mxCell id="EqLmaS4XHGkuEMbsUwe7-95" value="dosaggio" style="text;html=1;align=center;verticalAlign=middle;resizable=0;points=[];autosize=1;strokeColor=none;fillColor=none;" parent="1" vertex="1">
          <mxGeometry x="215" y="893" width="70" height="30" as="geometry" />
        </mxCell>
        <mxCell id="EqLmaS4XHGkuEMbsUwe7-97" value="salario" style="text;html=1;align=center;verticalAlign=middle;resizable=0;points=[];autosize=1;strokeColor=none;fillColor=none;" parent="1" vertex="1">
          <mxGeometry x="90.5" y="386" width="60" height="30" as="geometry" />
        </mxCell>
        <mxCell id="EqLmaS4XHGkuEMbsUwe7-98" value="nome&lt;div&gt;attrezzatura&lt;/div&gt;" style="text;html=1;align=center;verticalAlign=middle;resizable=0;points=[];autosize=1;strokeColor=none;fillColor=none;" parent="1" vertex="1">
          <mxGeometry x="275" y="377" width="90" height="40" as="geometry" />
        </mxCell>
        <mxCell id="EqLmaS4XHGkuEMbsUwe7-99" value="pericolosità" style="text;html=1;align=center;verticalAlign=middle;resizable=0;points=[];autosize=1;strokeColor=none;fillColor=none;" parent="1" vertex="1">
          <mxGeometry x="346" y="370" width="80" height="30" as="geometry" />
        </mxCell>
        <mxCell id="EqLmaS4XHGkuEMbsUwe7-102" value="piano" style="text;html=1;align=center;verticalAlign=middle;resizable=0;points=[];autosize=1;strokeColor=none;fillColor=none;" parent="1" vertex="1">
          <mxGeometry x="470" y="249" width="50" height="30" as="geometry" />
        </mxCell>
        <mxCell id="EqLmaS4XHGkuEMbsUwe7-107" value="id. cartella" style="text;html=1;align=center;verticalAlign=middle;resizable=0;points=[];autosize=1;strokeColor=none;fillColor=none;" parent="1" vertex="1">
          <mxGeometry x="510" y="570" width="80" height="30" as="geometry" />
        </mxCell>
        <mxCell id="EqLmaS4XHGkuEMbsUwe7-108" value="allergie" style="text;html=1;align=center;verticalAlign=middle;resizable=0;points=[];autosize=1;strokeColor=none;fillColor=none;" parent="1" vertex="1">
          <mxGeometry x="580" y="540" width="60" height="30" as="geometry" />
        </mxCell>
        <mxCell id="EqLmaS4XHGkuEMbsUwe7-109" value="patologie" style="text;html=1;align=center;verticalAlign=middle;resizable=0;points=[];autosize=1;strokeColor=none;fillColor=none;" parent="1" vertex="1">
          <mxGeometry x="660" y="678" width="70" height="30" as="geometry" />
        </mxCell>
        <mxCell id="EqLmaS4XHGkuEMbsUwe7-110" value="stato del &lt;br&gt;paziente" style="text;html=1;align=center;verticalAlign=middle;resizable=0;points=[];autosize=1;strokeColor=none;fillColor=none;" parent="1" vertex="1">
          <mxGeometry x="660" y="530" width="70" height="40" as="geometry" />
        </mxCell>
        <mxCell id="EqLmaS4XHGkuEMbsUwe7-111" value="gruppo&lt;div&gt;&amp;nbsp;sanguigno&amp;nbsp;&lt;/div&gt;" style="text;html=1;align=center;verticalAlign=middle;resizable=0;points=[];autosize=1;strokeColor=none;fillColor=none;" parent="1" vertex="1">
          <mxGeometry x="720" y="560" width="90" height="40" as="geometry" />
        </mxCell>
        <mxCell id="EqLmaS4XHGkuEMbsUwe7-114" value="id sala" style="text;html=1;align=center;verticalAlign=middle;resizable=0;points=[];autosize=1;strokeColor=none;fillColor=none;" parent="1" vertex="1">
          <mxGeometry x="-89" y="739" width="60" height="30" as="geometry" />
        </mxCell>
        <mxCell id="EqLmaS4XHGkuEMbsUwe7-115" value="livello&lt;div&gt;&amp;nbsp;attrezzatura&lt;/div&gt;" style="text;html=1;align=center;verticalAlign=middle;resizable=0;points=[];autosize=1;strokeColor=none;fillColor=none;" parent="1" vertex="1">
          <mxGeometry x="-189" y="875" width="90" height="40" as="geometry" />
        </mxCell>
        <mxCell id="EqLmaS4XHGkuEMbsUwe7-116" value="max&amp;nbsp;&lt;div&gt;persone&lt;/div&gt;" style="text;html=1;align=center;verticalAlign=middle;resizable=0;points=[];autosize=1;strokeColor=none;fillColor=none;" parent="1" vertex="1">
          <mxGeometry x="-169" y="712" width="70" height="40" as="geometry" />
        </mxCell>
        <mxCell id="EqLmaS4XHGkuEMbsUwe7-117" value="data nascita" style="text;html=1;align=center;verticalAlign=middle;resizable=0;points=[];autosize=1;strokeColor=none;fillColor=none;" parent="1" vertex="1">
          <mxGeometry x="-75" y="440" width="90" height="30" as="geometry" />
        </mxCell>
        <mxCell id="EqLmaS4XHGkuEMbsUwe7-119" value="" style="ellipse;whiteSpace=wrap;html=1;aspect=fixed;" parent="1" vertex="1">
          <mxGeometry x="10" y="422" width="10" height="10" as="geometry" />
        </mxCell>
        <mxCell id="EqLmaS4XHGkuEMbsUwe7-120" value="" style="ellipse;whiteSpace=wrap;html=1;aspect=fixed;" parent="1" vertex="1">
          <mxGeometry x="50" y="402" width="10" height="10" as="geometry" />
        </mxCell>
        <mxCell id="EqLmaS4XHGkuEMbsUwe7-123" value="" style="ellipse;whiteSpace=wrap;html=1;aspect=fixed;" parent="1" vertex="1">
          <mxGeometry x="100" y="412" width="10" height="10" as="geometry" />
        </mxCell>
        <mxCell id="EqLmaS4XHGkuEMbsUwe7-125" value="" style="ellipse;whiteSpace=wrap;html=1;aspect=fixed;" parent="1" vertex="1">
          <mxGeometry x="5" y="450" width="10" height="10" as="geometry" />
        </mxCell>
        <mxCell id="EqLmaS4XHGkuEMbsUwe7-126" value="badge" style="text;html=1;align=center;verticalAlign=middle;resizable=0;points=[];autosize=1;strokeColor=none;fillColor=none;" parent="1" vertex="1">
          <mxGeometry x="-45" y="478" width="60" height="30" as="geometry" />
        </mxCell>
        <mxCell id="EqLmaS4XHGkuEMbsUwe7-128" value="" style="endArrow=none;html=1;rounded=0;exitX=0.041;exitY=0.007;exitDx=0;exitDy=0;exitPerimeter=0;" parent="1" source="Gjo6DUxktxaH3FMSYRhE-1" edge="1">
          <mxGeometry width="50" height="50" relative="1" as="geometry">
            <mxPoint x="-31" y="480" as="sourcePoint" />
            <mxPoint x="19" y="430" as="targetPoint" />
          </mxGeometry>
        </mxCell>
        <mxCell id="EqLmaS4XHGkuEMbsUwe7-129" value="" style="endArrow=none;html=1;rounded=0;exitX=0.177;exitY=-0.023;exitDx=0;exitDy=0;exitPerimeter=0;" parent="1" source="Gjo6DUxktxaH3FMSYRhE-1" edge="1">
          <mxGeometry width="50" height="50" relative="1" as="geometry">
            <mxPoint x="6" y="462" as="sourcePoint" />
            <mxPoint x="56" y="412" as="targetPoint" />
          </mxGeometry>
        </mxCell>
        <mxCell id="EqLmaS4XHGkuEMbsUwe7-130" value="" style="endArrow=none;html=1;rounded=0;exitX=0.585;exitY=-0.001;exitDx=0;exitDy=0;exitPerimeter=0;" parent="1" source="Gjo6DUxktxaH3FMSYRhE-1" edge="1">
          <mxGeometry width="50" height="50" relative="1" as="geometry">
            <mxPoint x="55" y="472" as="sourcePoint" />
            <mxPoint x="105" y="422" as="targetPoint" />
          </mxGeometry>
        </mxCell>
        <mxCell id="EqLmaS4XHGkuEMbsUwe7-132" value="" style="endArrow=none;html=1;rounded=0;exitX=1.009;exitY=0.517;exitDx=0;exitDy=0;exitPerimeter=0;entryX=0;entryY=0.25;entryDx=0;entryDy=0;" parent="1" source="EqLmaS4XHGkuEMbsUwe7-117" target="Gjo6DUxktxaH3FMSYRhE-1" edge="1">
          <mxGeometry width="50" height="50" relative="1" as="geometry">
            <mxPoint x="145" y="495" as="sourcePoint" />
            <mxPoint x="170" y="450" as="targetPoint" />
          </mxGeometry>
        </mxCell>
        <mxCell id="EqLmaS4XHGkuEMbsUwe7-135" value="" style="ellipse;whiteSpace=wrap;html=1;aspect=fixed;" parent="1" vertex="1">
          <mxGeometry x="490" y="270" width="10" height="10" as="geometry" />
        </mxCell>
        <mxCell id="EqLmaS4XHGkuEMbsUwe7-137" value="" style="endArrow=none;html=1;rounded=0;exitX=0.793;exitY=-0.001;exitDx=0;exitDy=0;exitPerimeter=0;" parent="1" edge="1">
          <mxGeometry width="50" height="50" relative="1" as="geometry">
            <mxPoint x="495.1600000000001" y="299.94000000000005" as="sourcePoint" />
            <mxPoint x="495" y="280" as="targetPoint" />
          </mxGeometry>
        </mxCell>
        <mxCell id="EqLmaS4XHGkuEMbsUwe7-147" value="" style="ellipse;whiteSpace=wrap;html=1;aspect=fixed;" parent="1" vertex="1">
          <mxGeometry x="1100" y="389" width="10" height="10" as="geometry" />
        </mxCell>
        <mxCell id="EqLmaS4XHGkuEMbsUwe7-148" value="" style="endArrow=none;html=1;rounded=0;exitX=0.878;exitY=-0.006;exitDx=0;exitDy=0;exitPerimeter=0;" parent="1" source="Gjo6DUxktxaH3FMSYRhE-10" edge="1">
          <mxGeometry width="50" height="50" relative="1" as="geometry">
            <mxPoint x="1060" y="321" as="sourcePoint" />
            <mxPoint x="1110" y="271" as="targetPoint" />
          </mxGeometry>
        </mxCell>
        <mxCell id="EqLmaS4XHGkuEMbsUwe7-149" value="" style="endArrow=none;html=1;rounded=0;exitX=0.5;exitY=0;exitDx=0;exitDy=0;" parent="1" source="EqLmaS4XHGkuEMbsUwe7-147" edge="1">
          <mxGeometry width="50" height="50" relative="1" as="geometry">
            <mxPoint x="1055" y="411" as="sourcePoint" />
            <mxPoint x="1105" y="361" as="targetPoint" />
          </mxGeometry>
        </mxCell>
        <mxCell id="EqLmaS4XHGkuEMbsUwe7-150" value="&lt;span style=&quot;white-space: nowrap;&quot;&gt;accompagnatore&lt;/span&gt;" style="rounded=1;whiteSpace=wrap;html=1;" parent="1" vertex="1">
          <mxGeometry x="895" y="980" width="90" height="25" as="geometry" />
        </mxCell>
        <mxCell id="EqLmaS4XHGkuEMbsUwe7-151" value="" style="endArrow=none;html=1;rounded=0;exitX=0.5;exitY=0;exitDx=0;exitDy=0;" parent="1" source="EqLmaS4XHGkuEMbsUwe7-150" edge="1">
          <mxGeometry width="50" height="50" relative="1" as="geometry">
            <mxPoint x="890" y="990" as="sourcePoint" />
            <mxPoint x="940" y="940" as="targetPoint" />
          </mxGeometry>
        </mxCell>
        <mxCell id="EqLmaS4XHGkuEMbsUwe7-152" value="nome" style="text;html=1;align=center;verticalAlign=middle;resizable=0;points=[];autosize=1;strokeColor=none;fillColor=none;" parent="1" vertex="1">
          <mxGeometry x="810" y="990" width="50" height="30" as="geometry" />
        </mxCell>
        <mxCell id="EqLmaS4XHGkuEMbsUwe7-153" value="grado di &lt;br&gt;parentela" style="text;html=1;align=center;verticalAlign=middle;resizable=0;points=[];autosize=1;strokeColor=none;fillColor=none;" parent="1" vertex="1">
          <mxGeometry x="990" y="1031" width="70" height="40" as="geometry" />
        </mxCell>
        <mxCell id="EqLmaS4XHGkuEMbsUwe7-154" value="cognome" style="text;html=1;align=center;verticalAlign=middle;resizable=0;points=[];autosize=1;strokeColor=none;fillColor=none;" parent="1" vertex="1">
          <mxGeometry x="810" y="1020" width="70" height="30" as="geometry" />
        </mxCell>
        <mxCell id="EqLmaS4XHGkuEMbsUwe7-155" value="c.f. &lt;br&gt;accompagnatore" style="text;html=1;align=center;verticalAlign=middle;resizable=0;points=[];autosize=1;strokeColor=none;fillColor=none;" parent="1" vertex="1">
          <mxGeometry x="827" y="1041" width="110" height="40" as="geometry" />
        </mxCell>
        <mxCell id="EqLmaS4XHGkuEMbsUwe7-156" value="data&amp;nbsp;&lt;div&gt;nascita&lt;/div&gt;" style="text;html=1;align=center;verticalAlign=middle;resizable=0;points=[];autosize=1;strokeColor=none;fillColor=none;" parent="1" vertex="1">
          <mxGeometry x="925" y="1035" width="60" height="40" as="geometry" />
        </mxCell>
        <mxCell id="EqLmaS4XHGkuEMbsUwe7-157" value="" style="ellipse;whiteSpace=wrap;html=1;aspect=fixed;" parent="1" vertex="1">
          <mxGeometry x="990" y="1025" width="10" height="10" as="geometry" />
        </mxCell>
        <mxCell id="EqLmaS4XHGkuEMbsUwe7-158" value="" style="ellipse;whiteSpace=wrap;html=1;aspect=fixed;" parent="1" vertex="1">
          <mxGeometry x="950" y="1035" width="10" height="10" as="geometry" />
        </mxCell>
        <mxCell id="EqLmaS4XHGkuEMbsUwe7-160" value="" style="ellipse;whiteSpace=wrap;html=1;aspect=fixed;" parent="1" vertex="1">
          <mxGeometry x="860" y="1021" width="10" height="10" as="geometry" />
        </mxCell>
        <mxCell id="EqLmaS4XHGkuEMbsUwe7-161" value="" style="ellipse;whiteSpace=wrap;html=1;aspect=fixed;" parent="1" vertex="1">
          <mxGeometry x="850" y="995" width="10" height="10" as="geometry" />
        </mxCell>
        <mxCell id="EqLmaS4XHGkuEMbsUwe7-162" value="" style="endArrow=none;html=1;rounded=0;entryX=0;entryY=0.5;entryDx=0;entryDy=0;" parent="1" target="EqLmaS4XHGkuEMbsUwe7-150" edge="1">
          <mxGeometry width="50" height="50" relative="1" as="geometry">
            <mxPoint x="860" y="999" as="sourcePoint" />
            <mxPoint x="910" y="949" as="targetPoint" />
          </mxGeometry>
        </mxCell>
        <mxCell id="EqLmaS4XHGkuEMbsUwe7-163" value="" style="endArrow=none;html=1;rounded=0;entryX=0.008;entryY=0.962;entryDx=0;entryDy=0;entryPerimeter=0;" parent="1" target="EqLmaS4XHGkuEMbsUwe7-150" edge="1">
          <mxGeometry width="50" height="50" relative="1" as="geometry">
            <mxPoint x="870" y="1023" as="sourcePoint" />
            <mxPoint x="920" y="973" as="targetPoint" />
          </mxGeometry>
        </mxCell>
        <mxCell id="EqLmaS4XHGkuEMbsUwe7-164" value="" style="endArrow=none;html=1;rounded=0;entryX=0.174;entryY=1.026;entryDx=0;entryDy=0;entryPerimeter=0;exitX=0.508;exitY=-0.023;exitDx=0;exitDy=0;exitPerimeter=0;" parent="1" source="EqLmaS4XHGkuEMbsUwe7-155" target="EqLmaS4XHGkuEMbsUwe7-150" edge="1">
          <mxGeometry width="50" height="50" relative="1" as="geometry">
            <mxPoint x="910" y="1030" as="sourcePoint" />
            <mxPoint x="960" y="990" as="targetPoint" />
          </mxGeometry>
        </mxCell>
        <mxCell id="EqLmaS4XHGkuEMbsUwe7-165" value="" style="endArrow=none;html=1;rounded=0;entryX=0.667;entryY=1.003;entryDx=0;entryDy=0;entryPerimeter=0;" parent="1" target="EqLmaS4XHGkuEMbsUwe7-150" edge="1">
          <mxGeometry width="50" height="50" relative="1" as="geometry">
            <mxPoint x="955" y="1035" as="sourcePoint" />
            <mxPoint x="1005" y="985" as="targetPoint" />
          </mxGeometry>
        </mxCell>
        <mxCell id="EqLmaS4XHGkuEMbsUwe7-166" value="" style="endArrow=none;html=1;rounded=0;entryX=0.941;entryY=0.987;entryDx=0;entryDy=0;entryPerimeter=0;" parent="1" target="EqLmaS4XHGkuEMbsUwe7-150" edge="1">
          <mxGeometry width="50" height="50" relative="1" as="geometry">
            <mxPoint x="995" y="1025" as="sourcePoint" />
            <mxPoint x="1045" y="975" as="targetPoint" />
          </mxGeometry>
        </mxCell>
        <mxCell id="EqLmaS4XHGkuEMbsUwe7-167" value="" style="ellipse;whiteSpace=wrap;html=1;aspect=fixed;" parent="1" vertex="1">
          <mxGeometry x="945" y="750" width="10" height="10" as="geometry" />
        </mxCell>
        <mxCell id="EqLmaS4XHGkuEMbsUwe7-168" value="" style="ellipse;whiteSpace=wrap;html=1;aspect=fixed;" parent="1" vertex="1">
          <mxGeometry x="910" y="718" width="10" height="10" as="geometry" />
        </mxCell>
        <mxCell id="EqLmaS4XHGkuEMbsUwe7-170" value="" style="ellipse;whiteSpace=wrap;html=1;aspect=fixed;" parent="1" vertex="1">
          <mxGeometry x="840" y="718" width="10" height="10" as="geometry" />
        </mxCell>
        <mxCell id="EqLmaS4XHGkuEMbsUwe7-171" value="" style="ellipse;whiteSpace=wrap;html=1;aspect=fixed;" parent="1" vertex="1">
          <mxGeometry x="800" y="728" width="10" height="10" as="geometry" />
        </mxCell>
        <mxCell id="EqLmaS4XHGkuEMbsUwe7-172" value="" style="ellipse;whiteSpace=wrap;html=1;aspect=fixed;" parent="1" vertex="1">
          <mxGeometry x="763" y="742" width="10" height="10" as="geometry" />
        </mxCell>
        <mxCell id="EqLmaS4XHGkuEMbsUwe7-173" value="" style="endArrow=none;html=1;rounded=0;entryX=0.981;entryY=0.635;entryDx=0;entryDy=0;entryPerimeter=0;exitX=-0.009;exitY=0.04;exitDx=0;exitDy=0;exitPerimeter=0;" parent="1" source="Gjo6DUxktxaH3FMSYRhE-5" target="EqLmaS4XHGkuEMbsUwe7-172" edge="1">
          <mxGeometry width="50" height="50" relative="1" as="geometry">
            <mxPoint x="750" y="810" as="sourcePoint" />
            <mxPoint x="800" y="760" as="targetPoint" />
          </mxGeometry>
        </mxCell>
        <mxCell id="EqLmaS4XHGkuEMbsUwe7-174" value="" style="endArrow=none;html=1;rounded=0;exitX=0.043;exitY=-0.012;exitDx=0;exitDy=0;exitPerimeter=0;" parent="1" source="Gjo6DUxktxaH3FMSYRhE-5" edge="1">
          <mxGeometry width="50" height="50" relative="1" as="geometry">
            <mxPoint x="755" y="788" as="sourcePoint" />
            <mxPoint x="805" y="738" as="targetPoint" />
          </mxGeometry>
        </mxCell>
        <mxCell id="EqLmaS4XHGkuEMbsUwe7-175" value="" style="endArrow=none;html=1;rounded=0;exitX=0.379;exitY=-0.012;exitDx=0;exitDy=0;exitPerimeter=0;" parent="1" source="Gjo6DUxktxaH3FMSYRhE-5" edge="1">
          <mxGeometry width="50" height="50" relative="1" as="geometry">
            <mxPoint x="795" y="778" as="sourcePoint" />
            <mxPoint x="845" y="728" as="targetPoint" />
          </mxGeometry>
        </mxCell>
        <mxCell id="EqLmaS4XHGkuEMbsUwe7-176" value="" style="endArrow=none;html=1;rounded=0;exitX=0.621;exitY=0.001;exitDx=0;exitDy=0;exitPerimeter=0;" parent="1" source="Gjo6DUxktxaH3FMSYRhE-5" edge="1">
          <mxGeometry width="50" height="50" relative="1" as="geometry">
            <mxPoint x="825" y="790" as="sourcePoint" />
            <mxPoint x="875" y="740" as="targetPoint" />
          </mxGeometry>
        </mxCell>
        <mxCell id="EqLmaS4XHGkuEMbsUwe7-177" value="" style="endArrow=none;html=1;rounded=0;exitX=0.959;exitY=-0.002;exitDx=0;exitDy=0;exitPerimeter=0;" parent="1" source="Gjo6DUxktxaH3FMSYRhE-5" edge="1">
          <mxGeometry width="50" height="50" relative="1" as="geometry">
            <mxPoint x="865" y="778" as="sourcePoint" />
            <mxPoint x="915" y="728" as="targetPoint" />
          </mxGeometry>
        </mxCell>
        <mxCell id="EqLmaS4XHGkuEMbsUwe7-178" value="" style="endArrow=none;html=1;rounded=0;exitX=0.999;exitY=0.152;exitDx=0;exitDy=0;exitPerimeter=0;" parent="1" source="Gjo6DUxktxaH3FMSYRhE-5" edge="1">
          <mxGeometry width="50" height="50" relative="1" as="geometry">
            <mxPoint x="896" y="807" as="sourcePoint" />
            <mxPoint x="946" y="757" as="targetPoint" />
          </mxGeometry>
        </mxCell>
        <mxCell id="EqLmaS4XHGkuEMbsUwe7-180" value="" style="ellipse;whiteSpace=wrap;html=1;aspect=fixed;" parent="1" vertex="1">
          <mxGeometry x="683" y="569" width="10" height="10" as="geometry" />
        </mxCell>
        <mxCell id="EqLmaS4XHGkuEMbsUwe7-181" value="" style="ellipse;whiteSpace=wrap;html=1;aspect=fixed;" parent="1" vertex="1">
          <mxGeometry x="605" y="562" width="10" height="10" as="geometry" />
        </mxCell>
        <mxCell id="EqLmaS4XHGkuEMbsUwe7-182" value="" style="ellipse;whiteSpace=wrap;html=1;aspect=fixed;" parent="1" vertex="1">
          <mxGeometry x="730" y="572" width="10" height="10" as="geometry" />
        </mxCell>
        <mxCell id="EqLmaS4XHGkuEMbsUwe7-183" value="" style="ellipse;whiteSpace=wrap;html=1;aspect=fixed;" parent="1" vertex="1">
          <mxGeometry x="690" y="678" width="10" height="10" as="geometry" />
        </mxCell>
        <mxCell id="EqLmaS4XHGkuEMbsUwe7-184" value="" style="endArrow=none;html=1;rounded=0;exitX=-0.003;exitY=0.122;exitDx=0;exitDy=0;exitPerimeter=0;" parent="1" source="Gjo6DUxktxaH3FMSYRhE-17" edge="1">
          <mxGeometry width="50" height="50" relative="1" as="geometry">
            <mxPoint x="530" y="646" as="sourcePoint" />
            <mxPoint x="580" y="596" as="targetPoint" />
          </mxGeometry>
        </mxCell>
        <mxCell id="EqLmaS4XHGkuEMbsUwe7-185" value="" style="endArrow=none;html=1;rounded=0;exitX=0.083;exitY=-0.012;exitDx=0;exitDy=0;exitPerimeter=0;" parent="1" source="Gjo6DUxktxaH3FMSYRhE-17" edge="1">
          <mxGeometry width="50" height="50" relative="1" as="geometry">
            <mxPoint x="560" y="622" as="sourcePoint" />
            <mxPoint x="610" y="572" as="targetPoint" />
          </mxGeometry>
        </mxCell>
        <mxCell id="EqLmaS4XHGkuEMbsUwe7-186" value="" style="endArrow=none;html=1;rounded=0;exitX=0.737;exitY=-0.006;exitDx=0;exitDy=0;exitPerimeter=0;" parent="1" source="Gjo6DUxktxaH3FMSYRhE-17" edge="1">
          <mxGeometry width="50" height="50" relative="1" as="geometry">
            <mxPoint x="639" y="629" as="sourcePoint" />
            <mxPoint x="689" y="579" as="targetPoint" />
          </mxGeometry>
        </mxCell>
        <mxCell id="EqLmaS4XHGkuEMbsUwe7-187" value="" style="endArrow=none;html=1;rounded=0;" parent="1" edge="1">
          <mxGeometry width="50" height="50" relative="1" as="geometry">
            <mxPoint x="710" y="600" as="sourcePoint" />
            <mxPoint x="731" y="579" as="targetPoint" />
          </mxGeometry>
        </mxCell>
        <mxCell id="EqLmaS4XHGkuEMbsUwe7-188" value="" style="endArrow=none;html=1;rounded=0;exitX=0.5;exitY=0;exitDx=0;exitDy=0;" parent="1" source="EqLmaS4XHGkuEMbsUwe7-183" edge="1">
          <mxGeometry width="50" height="50" relative="1" as="geometry">
            <mxPoint x="646" y="710" as="sourcePoint" />
            <mxPoint x="696" y="660" as="targetPoint" />
          </mxGeometry>
        </mxCell>
        <mxCell id="EqLmaS4XHGkuEMbsUwe7-191" value="" style="endArrow=none;html=1;rounded=0;exitX=0.172;exitY=-0.009;exitDx=0;exitDy=0;exitPerimeter=0;" parent="1" edge="1">
          <mxGeometry width="50" height="50" relative="1" as="geometry">
            <mxPoint x="321.0000000000001" y="439.99999999999994" as="sourcePoint" />
            <mxPoint x="321" y="420" as="targetPoint" />
          </mxGeometry>
        </mxCell>
        <mxCell id="EqLmaS4XHGkuEMbsUwe7-195" value="" style="ellipse;whiteSpace=wrap;html=1;aspect=fixed;" parent="1" vertex="1">
          <mxGeometry x="-134" y="746" width="10" height="10" as="geometry" />
        </mxCell>
        <mxCell id="EqLmaS4XHGkuEMbsUwe7-198" value="" style="ellipse;whiteSpace=wrap;html=1;aspect=fixed;" parent="1" vertex="1">
          <mxGeometry x="-134" y="870" width="10" height="10" as="geometry" />
        </mxCell>
        <mxCell id="EqLmaS4XHGkuEMbsUwe7-199" value="" style="ellipse;whiteSpace=wrap;html=1;aspect=fixed;" parent="1" vertex="1">
          <mxGeometry x="280" y="903" width="10" height="10" as="geometry" />
        </mxCell>
        <mxCell id="EqLmaS4XHGkuEMbsUwe7-201" value="" style="ellipse;whiteSpace=wrap;html=1;aspect=fixed;" parent="1" vertex="1">
          <mxGeometry x="336" y="972" width="10" height="10" as="geometry" />
        </mxCell>
        <mxCell id="EqLmaS4XHGkuEMbsUwe7-202" value="" style="ellipse;whiteSpace=wrap;html=1;aspect=fixed;" parent="1" vertex="1">
          <mxGeometry x="420" y="972" width="10" height="10" as="geometry" />
        </mxCell>
        <mxCell id="EqLmaS4XHGkuEMbsUwe7-208" value="" style="endArrow=none;html=1;rounded=0;" parent="1" edge="1">
          <mxGeometry width="50" height="50" relative="1" as="geometry">
            <mxPoint x="315" y="906.3299999999999" as="sourcePoint" />
            <mxPoint x="291" y="906.3299999999999" as="targetPoint" />
          </mxGeometry>
        </mxCell>
        <mxCell id="EqLmaS4XHGkuEMbsUwe7-209" value="" style="endArrow=none;html=1;rounded=0;exitX=0.005;exitY=0.839;exitDx=0;exitDy=0;entryX=0.5;entryY=1;entryDx=0;entryDy=0;exitPerimeter=0;" parent="1" source="Gjo6DUxktxaH3FMSYRhE-15" target="81" edge="1">
          <mxGeometry width="50" height="50" relative="1" as="geometry">
            <mxPoint x="256" y="982" as="sourcePoint" />
            <mxPoint x="275" y="941" as="targetPoint" />
          </mxGeometry>
        </mxCell>
        <mxCell id="EqLmaS4XHGkuEMbsUwe7-210" value="" style="endArrow=none;html=1;rounded=0;entryX=0.207;entryY=0.995;entryDx=0;entryDy=0;entryPerimeter=0;" parent="1" target="Gjo6DUxktxaH3FMSYRhE-15" edge="1">
          <mxGeometry width="50" height="50" relative="1" as="geometry">
            <mxPoint x="340" y="972" as="sourcePoint" />
            <mxPoint x="409" y="909" as="targetPoint" />
          </mxGeometry>
        </mxCell>
        <mxCell id="EqLmaS4XHGkuEMbsUwe7-211" value="" style="endArrow=none;html=1;rounded=0;entryX=0.914;entryY=1.012;entryDx=0;entryDy=0;entryPerimeter=0;" parent="1" target="Gjo6DUxktxaH3FMSYRhE-15" edge="1">
          <mxGeometry width="50" height="50" relative="1" as="geometry">
            <mxPoint x="425" y="972" as="sourcePoint" />
            <mxPoint x="494" y="912" as="targetPoint" />
          </mxGeometry>
        </mxCell>
        <mxCell id="EqLmaS4XHGkuEMbsUwe7-215" value="" style="endArrow=none;html=1;rounded=0;exitX=0.173;exitY=-0.017;exitDx=0;exitDy=0;exitPerimeter=0;entryX=0.5;entryY=1;entryDx=0;entryDy=0;" parent="1" source="Gjo6DUxktxaH3FMSYRhE-11" target="EqLmaS4XHGkuEMbsUwe7-195" edge="1">
          <mxGeometry width="50" height="50" relative="1" as="geometry">
            <mxPoint x="-216" y="805.5" as="sourcePoint" />
            <mxPoint x="-166" y="755.5" as="targetPoint" />
          </mxGeometry>
        </mxCell>
        <mxCell id="EqLmaS4XHGkuEMbsUwe7-216" value="" style="endArrow=none;html=1;rounded=0;entryX=0.5;entryY=1;entryDx=0;entryDy=0;" parent="1" edge="1">
          <mxGeometry width="50" height="50" relative="1" as="geometry">
            <mxPoint x="-54" y="786" as="sourcePoint" />
            <mxPoint x="-54" y="765.0000000000002" as="targetPoint" />
          </mxGeometry>
        </mxCell>
        <mxCell id="13" value="" style="endArrow=none;html=1;exitX=1;exitY=0.5;exitDx=0;exitDy=0;" parent="1" source="Gjo6DUxktxaH3FMSYRhE-2" edge="1">
          <mxGeometry width="50" height="50" relative="1" as="geometry">
            <mxPoint x="350" y="680" as="sourcePoint" />
            <mxPoint x="400" y="630" as="targetPoint" />
          </mxGeometry>
        </mxCell>
        <mxCell id="24" value="" style="endArrow=none;html=1;rounded=0;exitX=0.549;exitY=-0.023;exitDx=0;exitDy=0;exitPerimeter=0;" parent="1" source="Gjo6DUxktxaH3FMSYRhE-14" target="EqLmaS4XHGkuEMbsUwe7-189" edge="1">
          <mxGeometry width="50" height="50" relative="1" as="geometry">
            <mxPoint x="390" y="439.5" as="sourcePoint" />
            <mxPoint x="395" y="409.5" as="targetPoint" />
          </mxGeometry>
        </mxCell>
        <mxCell id="EqLmaS4XHGkuEMbsUwe7-189" value="" style="ellipse;whiteSpace=wrap;html=1;aspect=fixed;" parent="1" vertex="1">
          <mxGeometry x="375" y="392" width="10" height="10" as="geometry" />
        </mxCell>
        <mxCell id="26" value="" style="endArrow=none;html=1;entryX=0;entryY=0.5;entryDx=0;entryDy=0;exitX=1;exitY=0.5;exitDx=0;exitDy=0;" parent="1" source="Gjo6DUxktxaH3FMSYRhE-14" target="GProfhIi8R3kbPbWlugL-12" edge="1">
          <mxGeometry width="50" height="50" relative="1" as="geometry">
            <mxPoint x="388" y="518" as="sourcePoint" />
            <mxPoint x="438" y="468" as="targetPoint" />
          </mxGeometry>
        </mxCell>
        <mxCell id="27" value="" style="endArrow=none;html=1;rounded=0;entryX=0.5;entryY=1;entryDx=0;entryDy=0;" parent="1" target="GProfhIi8R3kbPbWlugL-12" edge="1">
          <mxGeometry width="50" height="50" relative="1" as="geometry">
            <mxPoint x="520" y="470" as="sourcePoint" />
            <mxPoint x="520" y="360" as="targetPoint" />
          </mxGeometry>
        </mxCell>
        <mxCell id="GProfhIi8R3kbPbWlugL-12" value="situate" style="shape=rhombus;perimeter=rhombusPerimeter;whiteSpace=wrap;html=1;align=center;" parent="1" vertex="1">
          <mxGeometry x="460" y="440" width="120" height="60" as="geometry" />
        </mxCell>
        <mxCell id="32" value="" style="endArrow=none;html=1;entryX=1.007;entryY=0.499;entryDx=0;entryDy=0;entryPerimeter=0;exitX=0.007;exitY=0.877;exitDx=0;exitDy=0;exitPerimeter=0;" parent="1" source="Gjo6DUxktxaH3FMSYRhE-1" target="EqLmaS4XHGkuEMbsUwe7-126" edge="1">
          <mxGeometry width="50" height="50" relative="1" as="geometry">
            <mxPoint x="80" y="440" as="sourcePoint" />
            <mxPoint x="130" y="390" as="targetPoint" />
          </mxGeometry>
        </mxCell>
        <mxCell id="33" value="" style="endArrow=none;html=1;exitX=1;exitY=0.5;exitDx=0;exitDy=0;" parent="1" source="GProfhIi8R3kbPbWlugL-22" edge="1">
          <mxGeometry width="50" height="50" relative="1" as="geometry">
            <mxPoint x="265" y="518" as="sourcePoint" />
            <mxPoint x="315" y="470" as="targetPoint" />
          </mxGeometry>
        </mxCell>
        <mxCell id="34" value="" style="endArrow=none;html=1;entryX=0;entryY=0.5;entryDx=0;entryDy=0;exitX=1;exitY=0.5;exitDx=0;exitDy=0;" parent="1" source="Gjo6DUxktxaH3FMSYRhE-1" target="GProfhIi8R3kbPbWlugL-22" edge="1">
          <mxGeometry width="50" height="50" relative="1" as="geometry">
            <mxPoint x="97" y="279" as="sourcePoint" />
            <mxPoint x="147" y="229" as="targetPoint" />
          </mxGeometry>
        </mxCell>
        <mxCell id="35" value="" style="endArrow=none;html=1;" parent="1" edge="1">
          <mxGeometry width="50" height="50" relative="1" as="geometry">
            <mxPoint x="340.86" y="530" as="sourcePoint" />
            <mxPoint x="340.86" y="500" as="targetPoint" />
          </mxGeometry>
        </mxCell>
        <mxCell id="36" value="" style="ellipse;whiteSpace=wrap;html=1;aspect=fixed;" parent="1" vertex="1">
          <mxGeometry x="336" y="530" width="10" height="10" as="geometry" />
        </mxCell>
        <mxCell id="37" value="tipo di attrezzatura" style="text;html=1;align=center;verticalAlign=middle;resizable=0;points=[];autosize=1;strokeColor=none;fillColor=none;" parent="1" vertex="1">
          <mxGeometry x="339" y="520" width="120" height="30" as="geometry" />
        </mxCell>
        <mxCell id="DA8NWegLXy8gjZj4K9O9-37" value="nome &lt;br&gt;reparto" style="text;html=1;align=center;verticalAlign=middle;resizable=0;points=[];autosize=1;strokeColor=none;fillColor=none;" parent="1" vertex="1">
          <mxGeometry x="513" y="236" width="60" height="40" as="geometry" />
        </mxCell>
        <mxCell id="DA8NWegLXy8gjZj4K9O9-39" value="" style="endArrow=none;html=1;rounded=0;exitX=0.793;exitY=-0.001;exitDx=0;exitDy=0;exitPerimeter=0;" parent="1" target="80" edge="1">
          <mxGeometry width="50" height="50" relative="1" as="geometry">
            <mxPoint x="543.0200000000001" y="300.00000000000006" as="sourcePoint" />
            <mxPoint x="542.86" y="280.06" as="targetPoint" />
          </mxGeometry>
        </mxCell>
        <mxCell id="DA8NWegLXy8gjZj4K9O9-40" value="disponibilità" style="text;html=1;align=center;verticalAlign=middle;resizable=0;points=[];autosize=1;strokeColor=none;fillColor=none;" parent="1" vertex="1">
          <mxGeometry x="970" y="240" width="90" height="30" as="geometry" />
        </mxCell>
        <mxCell id="DA8NWegLXy8gjZj4K9O9-44" value="capacità&amp;nbsp;&lt;div&gt;massima&lt;/div&gt;" style="text;html=1;align=center;verticalAlign=middle;resizable=0;points=[];autosize=1;strokeColor=none;fillColor=none;" parent="1" vertex="1">
          <mxGeometry x="365" y="270" width="70" height="40" as="geometry" />
        </mxCell>
        <mxCell id="DA8NWegLXy8gjZj4K9O9-45" value="" style="ellipse;whiteSpace=wrap;html=1;aspect=fixed;" parent="1" vertex="1">
          <mxGeometry x="394" y="304" width="10" height="10" as="geometry" />
        </mxCell>
        <mxCell id="DA8NWegLXy8gjZj4K9O9-46" value="" style="endArrow=none;html=1;rounded=0;exitX=-0.006;exitY=0.172;exitDx=0;exitDy=0;exitPerimeter=0;" parent="1" source="Gjo6DUxktxaH3FMSYRhE-8" edge="1">
          <mxGeometry width="50" height="50" relative="1" as="geometry">
            <mxPoint x="404" y="329" as="sourcePoint" />
            <mxPoint x="404" y="310" as="targetPoint" />
          </mxGeometry>
        </mxCell>
        <mxCell id="DA8NWegLXy8gjZj4K9O9-47" value="stato&lt;div&gt;manutenzione&lt;/div&gt;" style="text;html=1;align=center;verticalAlign=middle;resizable=0;points=[];autosize=1;strokeColor=none;fillColor=none;" parent="1" vertex="1">
          <mxGeometry x="404" y="376" width="100" height="40" as="geometry" />
        </mxCell>
        <mxCell id="DA8NWegLXy8gjZj4K9O9-48" value="" style="ellipse;whiteSpace=wrap;html=1;aspect=fixed;" parent="1" vertex="1">
          <mxGeometry x="445" y="410" width="10" height="10" as="geometry" />
        </mxCell>
        <mxCell id="DA8NWegLXy8gjZj4K9O9-49" value="" style="endArrow=none;html=1;rounded=0;exitX=0.549;exitY=-0.023;exitDx=0;exitDy=0;exitPerimeter=0;entryX=0;entryY=1;entryDx=0;entryDy=0;" parent="1" target="DA8NWegLXy8gjZj4K9O9-48" edge="1">
          <mxGeometry width="50" height="50" relative="1" as="geometry">
            <mxPoint x="425" y="440" as="sourcePoint" />
            <mxPoint x="424" y="403" as="targetPoint" />
          </mxGeometry>
        </mxCell>
        <mxCell id="DA8NWegLXy8gjZj4K9O9-55" value="" style="ellipse;whiteSpace=wrap;html=1;aspect=fixed;" parent="1" vertex="1">
          <mxGeometry x="1025" y="269" width="10" height="10" as="geometry" />
        </mxCell>
        <mxCell id="DA8NWegLXy8gjZj4K9O9-56" value="" style="endArrow=none;html=1;rounded=0;" parent="1" edge="1">
          <mxGeometry width="50" height="50" relative="1" as="geometry">
            <mxPoint x="1030" y="301" as="sourcePoint" />
            <mxPoint x="1029.86" y="279" as="targetPoint" />
          </mxGeometry>
        </mxCell>
        <mxCell id="48" value="" style="endArrow=none;html=1;" parent="1" edge="1">
          <mxGeometry width="50" height="50" relative="1" as="geometry">
            <mxPoint x="1030" y="391" as="sourcePoint" />
            <mxPoint x="1029.83" y="361" as="targetPoint" />
          </mxGeometry>
        </mxCell>
        <mxCell id="50" value="" style="ellipse;whiteSpace=wrap;html=1;aspect=fixed;" parent="1" vertex="1">
          <mxGeometry x="1025" y="389" width="10" height="10" as="geometry" />
        </mxCell>
        <mxCell id="51" value="reparto" style="text;html=1;align=center;verticalAlign=middle;resizable=0;points=[];autosize=1;strokeColor=none;fillColor=none;" parent="1" vertex="1">
          <mxGeometry x="1000" y="391" width="60" height="30" as="geometry" />
        </mxCell>
        <mxCell id="52" value="Operazioni" style="rounded=0;whiteSpace=wrap;html=1;" parent="1" vertex="1">
          <mxGeometry x="40" y="915" width="120" height="60" as="geometry" />
        </mxCell>
        <mxCell id="53" value="id operazione" style="text;html=1;align=center;verticalAlign=middle;resizable=0;points=[];autosize=1;strokeColor=none;fillColor=none;" parent="1" vertex="1">
          <mxGeometry x="1" y="997" width="100" height="30" as="geometry" />
        </mxCell>
        <mxCell id="54" value="badge&amp;nbsp;&lt;div&gt;chilurgo&lt;/div&gt;" style="text;html=1;align=center;verticalAlign=middle;resizable=0;points=[];autosize=1;strokeColor=none;fillColor=none;" parent="1" vertex="1">
          <mxGeometry x="25.5" y="860" width="70" height="40" as="geometry" />
        </mxCell>
        <mxCell id="55" value="data" style="text;html=1;align=center;verticalAlign=middle;resizable=0;points=[];autosize=1;strokeColor=none;fillColor=none;" parent="1" vertex="1">
          <mxGeometry x="110.5" y="856" width="50" height="30" as="geometry" />
        </mxCell>
        <mxCell id="56" value="esito" style="text;html=1;align=center;verticalAlign=middle;resizable=0;points=[];autosize=1;strokeColor=none;fillColor=none;" parent="1" vertex="1">
          <mxGeometry x="165" y="870" width="50" height="30" as="geometry" />
        </mxCell>
        <mxCell id="57" value="" style="ellipse;whiteSpace=wrap;html=1;aspect=fixed;" parent="1" vertex="1">
          <mxGeometry x="134.5" y="877" width="10" height="10" as="geometry" />
        </mxCell>
        <mxCell id="58" value="" style="ellipse;whiteSpace=wrap;html=1;aspect=fixed;" parent="1" vertex="1">
          <mxGeometry x="124.5" y="1006" width="10" height="10" as="geometry" />
        </mxCell>
        <mxCell id="59" value="" style="ellipse;whiteSpace=wrap;html=1;aspect=fixed;" parent="1" vertex="1">
          <mxGeometry x="59" y="894" width="10" height="10" as="geometry" />
        </mxCell>
        <mxCell id="61" value="" style="endArrow=none;html=1;rounded=0;exitX=0.88;exitY=0.952;exitDx=0;exitDy=0;exitPerimeter=0;" parent="1" edge="1">
          <mxGeometry width="50" height="50" relative="1" as="geometry">
            <mxPoint x="65.59999999999968" y="917.0799999999999" as="sourcePoint" />
            <mxPoint x="65" y="904" as="targetPoint" />
          </mxGeometry>
        </mxCell>
        <mxCell id="62" value="" style="endArrow=none;html=1;rounded=0;entryX=0.5;entryY=1;entryDx=0;entryDy=0;" parent="1" target="57" edge="1">
          <mxGeometry width="50" height="50" relative="1" as="geometry">
            <mxPoint x="139.5" y="916" as="sourcePoint" />
            <mxPoint x="186" y="923" as="targetPoint" />
          </mxGeometry>
        </mxCell>
        <mxCell id="63" value="" style="endArrow=none;html=1;rounded=0;exitX=0.724;exitY=1.003;exitDx=0;exitDy=0;exitPerimeter=0;" parent="1" source="52" edge="1">
          <mxGeometry width="50" height="50" relative="1" as="geometry">
            <mxPoint x="148" y="1017" as="sourcePoint" />
            <mxPoint x="129.5" y="1006" as="targetPoint" />
          </mxGeometry>
        </mxCell>
        <mxCell id="65" value="" style="ellipse;whiteSpace=wrap;html=1;aspect=fixed;" parent="1" vertex="1">
          <mxGeometry x="180" y="998" width="10" height="10" as="geometry" />
        </mxCell>
        <mxCell id="66" value="" style="endArrow=none;html=1;rounded=0;entryX=1;entryY=1;entryDx=0;entryDy=0;" parent="1" target="52" edge="1">
          <mxGeometry width="50" height="50" relative="1" as="geometry">
            <mxPoint x="180" y="1000" as="sourcePoint" />
            <mxPoint x="159.62" y="982" as="targetPoint" />
          </mxGeometry>
        </mxCell>
        <mxCell id="67" value="" style="endArrow=none;html=1;" parent="1" source="82" edge="1">
          <mxGeometry width="50" height="50" relative="1" as="geometry">
            <mxPoint x="69.5" y="996" as="sourcePoint" />
            <mxPoint x="69.5" y="976" as="targetPoint" />
          </mxGeometry>
        </mxCell>
        <mxCell id="70" value="durata" style="text;html=1;align=center;verticalAlign=middle;resizable=0;points=[];autosize=1;strokeColor=none;fillColor=none;" parent="1" vertex="1">
          <mxGeometry x="180.88" y="997" width="60" height="30" as="geometry" />
        </mxCell>
        <mxCell id="72" value="" style="endArrow=none;html=1;entryX=0.75;entryY=1;entryDx=0;entryDy=0;startArrow=none;" parent="1" source="73" target="Gjo6DUxktxaH3FMSYRhE-11" edge="1">
          <mxGeometry width="50" height="50" relative="1" as="geometry">
            <mxPoint x="-59" y="871" as="sourcePoint" />
            <mxPoint x="-66.5" y="838.5" as="targetPoint" />
          </mxGeometry>
        </mxCell>
        <mxCell id="74" value="id operazione" style="text;html=1;align=center;verticalAlign=middle;resizable=0;points=[];autosize=1;strokeColor=none;fillColor=none;" parent="1" vertex="1">
          <mxGeometry x="-75" y="880" width="100" height="30" as="geometry" />
        </mxCell>
        <mxCell id="76" value="" style="endArrow=none;html=1;" parent="1" edge="1">
          <mxGeometry width="50" height="50" relative="1" as="geometry">
            <mxPoint x="450" y="300" as="sourcePoint" />
            <mxPoint x="450" y="260" as="targetPoint" />
          </mxGeometry>
        </mxCell>
        <mxCell id="77" value="" style="ellipse;whiteSpace=wrap;html=1;aspect=fixed;" parent="1" vertex="1">
          <mxGeometry x="445" y="251" width="10" height="10" as="geometry" />
        </mxCell>
        <mxCell id="78" value="capo reparto" style="text;html=1;align=center;verticalAlign=middle;resizable=0;points=[];autosize=1;strokeColor=none;fillColor=none;" parent="1" vertex="1">
          <mxGeometry x="394" y="221" width="90" height="30" as="geometry" />
        </mxCell>
        <mxCell id="79" value="" style="shape=waypoint;sketch=0;fillStyle=solid;size=6;pointerEvents=1;points=[];fillColor=none;resizable=0;rotatable=0;perimeter=centerPerimeter;snapToPoint=1;" parent="1" vertex="1">
          <mxGeometry x="6" y="483" width="20" height="20" as="geometry" />
        </mxCell>
        <mxCell id="80" value="" style="shape=waypoint;sketch=0;fillStyle=solid;size=6;pointerEvents=1;points=[];fillColor=none;resizable=0;rotatable=0;perimeter=centerPerimeter;snapToPoint=1;" parent="1" vertex="1">
          <mxGeometry x="532.8600000000001" y="270.05999999999995" width="20" height="20" as="geometry" />
        </mxCell>
        <mxCell id="81" value="" style="shape=waypoint;sketch=0;fillStyle=solid;size=6;pointerEvents=1;points=[];fillColor=none;resizable=0;rotatable=0;perimeter=centerPerimeter;snapToPoint=1;" parent="1" vertex="1">
          <mxGeometry x="270" y="931" width="20" height="20" as="geometry" />
        </mxCell>
        <mxCell id="82" value="" style="shape=waypoint;sketch=0;fillStyle=solid;size=6;pointerEvents=1;points=[];fillColor=none;resizable=0;rotatable=0;perimeter=centerPerimeter;snapToPoint=1;" parent="1" vertex="1">
          <mxGeometry x="59.50000000000023" y="986" width="20" height="20" as="geometry" />
        </mxCell>
        <mxCell id="83" value="" style="shape=waypoint;sketch=0;fillStyle=solid;size=6;pointerEvents=1;points=[];fillColor=none;resizable=0;rotatable=0;perimeter=centerPerimeter;snapToPoint=1;" parent="1" vertex="1">
          <mxGeometry x="-63.5" y="755" width="20" height="20" as="geometry" />
        </mxCell>
        <mxCell id="85" value="" style="shape=waypoint;sketch=0;fillStyle=solid;size=6;pointerEvents=1;points=[];fillColor=none;resizable=0;rotatable=0;perimeter=centerPerimeter;snapToPoint=1;" parent="1" vertex="1">
          <mxGeometry x="310" y="412" width="20" height="20" as="geometry" />
        </mxCell>
        <mxCell id="86" value="" style="shape=waypoint;sketch=0;fillStyle=solid;size=6;pointerEvents=1;points=[];fillColor=none;resizable=0;rotatable=0;perimeter=centerPerimeter;snapToPoint=1;" parent="1" vertex="1">
          <mxGeometry x="570" y="585" width="20" height="20" as="geometry" />
        </mxCell>
        <mxCell id="88" value="" style="shape=waypoint;sketch=0;fillStyle=solid;size=6;pointerEvents=1;points=[];fillColor=none;resizable=0;rotatable=0;perimeter=centerPerimeter;snapToPoint=1;" parent="1" vertex="1">
          <mxGeometry x="1100" y="261" width="20" height="20" as="geometry" />
        </mxCell>
        <mxCell id="89" value="" style="shape=waypoint;sketch=0;fillStyle=solid;size=6;pointerEvents=1;points=[];fillColor=none;resizable=0;rotatable=0;perimeter=centerPerimeter;snapToPoint=1;" parent="1" vertex="1">
          <mxGeometry x="865" y="732" width="20" height="20" as="geometry" />
        </mxCell>
        <mxCell id="91" value="" style="shape=waypoint;sketch=0;fillStyle=solid;size=6;pointerEvents=1;points=[];fillColor=none;resizable=0;rotatable=0;perimeter=centerPerimeter;snapToPoint=1;" parent="1" vertex="1">
          <mxGeometry x="872" y="1031" width="20" height="20" as="geometry" />
        </mxCell>
        <mxCell id="93" value="" style="endArrow=none;html=1;rounded=0;entryX=0.5;entryY=1;entryDx=0;entryDy=0;" parent="1" edge="1">
          <mxGeometry width="50" height="50" relative="1" as="geometry">
            <mxPoint x="100" y="759.9999999999998" as="sourcePoint" />
            <mxPoint x="100" y="746" as="targetPoint" />
            <Array as="points">
              <mxPoint x="100" y="660" />
            </Array>
          </mxGeometry>
        </mxCell>
        <mxCell id="98" value="aggiungere foreign key" style="text;html=1;align=center;verticalAlign=middle;resizable=0;points=[];autosize=1;strokeColor=none;fillColor=none;" parent="1" vertex="1">
          <mxGeometry x="430" y="110" width="150" height="30" as="geometry" />
        </mxCell>
        <mxCell id="99" value="attestato&lt;div&gt;&lt;br&gt;&lt;/div&gt;" style="text;html=1;align=center;verticalAlign=middle;resizable=0;points=[];autosize=1;strokeColor=none;fillColor=none;" parent="1" vertex="1">
          <mxGeometry x="295" y="673" width="70" height="40" as="geometry" />
        </mxCell>
        <mxCell id="100" value="" style="ellipse;whiteSpace=wrap;html=1;aspect=fixed;" parent="1" vertex="1">
          <mxGeometry x="290" y="678" width="10" height="10" as="geometry" />
        </mxCell>
        <mxCell id="101" value="" style="endArrow=none;html=1;rounded=0;exitX=0.585;exitY=-0.001;exitDx=0;exitDy=0;exitPerimeter=0;" parent="1" edge="1">
          <mxGeometry width="50" height="50" relative="1" as="geometry">
            <mxPoint x="295" y="678" as="sourcePoint" />
            <mxPoint x="295" y="659.9999999999999" as="targetPoint" />
          </mxGeometry>
        </mxCell>
        <mxCell id="103" value="specializzazione" style="text;html=1;align=center;verticalAlign=middle;resizable=0;points=[];autosize=1;strokeColor=none;fillColor=none;" parent="1" vertex="1">
          <mxGeometry x="105" y="680" width="110" height="30" as="geometry" />
        </mxCell>
        <mxCell id="104" value="" style="ellipse;whiteSpace=wrap;html=1;aspect=fixed;" parent="1" vertex="1">
          <mxGeometry x="125.5" y="678" width="10" height="10" as="geometry" />
        </mxCell>
        <mxCell id="105" value="" style="endArrow=none;html=1;rounded=0;exitX=0.585;exitY=-0.001;exitDx=0;exitDy=0;exitPerimeter=0;" parent="1" edge="1">
          <mxGeometry width="50" height="50" relative="1" as="geometry">
            <mxPoint x="130.5" y="678" as="sourcePoint" />
            <mxPoint x="130.5" y="659.9999999999999" as="targetPoint" />
          </mxGeometry>
        </mxCell>
        <mxCell id="114" value="Ricoveri" style="rounded=0;whiteSpace=wrap;html=1;" parent="1" vertex="1">
          <mxGeometry x="1000" y="606" width="120" height="60" as="geometry" />
        </mxCell>
        <mxCell id="115" value="id&amp;nbsp;&lt;div&gt;camera&lt;/div&gt;" style="text;html=1;align=center;verticalAlign=middle;resizable=0;points=[];autosize=1;strokeColor=none;fillColor=none;" parent="1" vertex="1">
          <mxGeometry x="1060" y="697" width="60" height="40" as="geometry" />
        </mxCell>
        <mxCell id="116" value="c.f." style="text;html=1;align=center;verticalAlign=middle;resizable=0;points=[];autosize=1;strokeColor=none;fillColor=none;" parent="1" vertex="1">
          <mxGeometry x="1140" y="650" width="40" height="30" as="geometry" />
        </mxCell>
        <mxCell id="117" value="data&amp;nbsp;&lt;div&gt;ricovero&lt;/div&gt;" style="text;html=1;align=center;verticalAlign=middle;resizable=0;points=[];autosize=1;strokeColor=none;fillColor=none;" parent="1" vertex="1">
          <mxGeometry x="1140" y="569" width="70" height="40" as="geometry" />
        </mxCell>
        <mxCell id="118" value="ora&amp;nbsp;&lt;div&gt;ricovero&lt;/div&gt;" style="text;html=1;align=center;verticalAlign=middle;resizable=0;points=[];autosize=1;strokeColor=none;fillColor=none;" parent="1" vertex="1">
          <mxGeometry x="980" y="679" width="70" height="40" as="geometry" />
        </mxCell>
        <mxCell id="119" value="data&amp;nbsp;&lt;div&gt;rilascio&lt;/div&gt;" style="text;html=1;align=center;verticalAlign=middle;resizable=0;points=[];autosize=1;strokeColor=none;fillColor=none;" parent="1" vertex="1">
          <mxGeometry x="925" y="631" width="60" height="40" as="geometry" />
        </mxCell>
        <mxCell id="120" value="ora&lt;div&gt;&amp;nbsp;rilascio&lt;/div&gt;" style="text;html=1;align=center;verticalAlign=middle;resizable=0;points=[];autosize=1;strokeColor=none;fillColor=none;" parent="1" vertex="1">
          <mxGeometry x="929" y="570" width="60" height="40" as="geometry" />
        </mxCell>
        <mxCell id="121" value="stato&lt;div&gt;&amp;nbsp;ricovero&lt;/div&gt;" style="text;html=1;align=center;verticalAlign=middle;resizable=0;points=[];autosize=1;strokeColor=none;fillColor=none;" parent="1" vertex="1">
          <mxGeometry x="1150" y="616" width="70" height="40" as="geometry" />
        </mxCell>
        <mxCell id="123" value="" style="ellipse;whiteSpace=wrap;html=1;aspect=fixed;" parent="1" vertex="1">
          <mxGeometry x="1150" y="606" width="10" height="10" as="geometry" />
        </mxCell>
        <mxCell id="124" value="" style="ellipse;whiteSpace=wrap;html=1;aspect=fixed;" parent="1" vertex="1">
          <mxGeometry x="975" y="581.06" width="10" height="10" as="geometry" />
        </mxCell>
        <mxCell id="125" value="" style="ellipse;whiteSpace=wrap;html=1;aspect=fixed;" parent="1" vertex="1">
          <mxGeometry x="950" y="627" width="10" height="10" as="geometry" />
        </mxCell>
        <mxCell id="126" value="" style="ellipse;whiteSpace=wrap;html=1;aspect=fixed;" parent="1" vertex="1">
          <mxGeometry x="1025" y="687" width="10" height="10" as="geometry" />
        </mxCell>
        <mxCell id="127" value="" style="ellipse;whiteSpace=wrap;html=1;aspect=fixed;" parent="1" vertex="1">
          <mxGeometry x="1085" y="687" width="10" height="10" as="geometry" />
        </mxCell>
        <mxCell id="129" value="" style="endArrow=none;html=1;rounded=0;startArrow=none;" parent="1" source="122" edge="1">
          <mxGeometry width="50" height="50" relative="1" as="geometry">
            <mxPoint x="1140" y="660" as="sourcePoint" />
            <mxPoint x="1119.31" y="657" as="targetPoint" />
          </mxGeometry>
        </mxCell>
        <mxCell id="130" value="" style="endArrow=none;html=1;rounded=0;entryX=1;entryY=0.25;entryDx=0;entryDy=0;" parent="1" target="114" edge="1">
          <mxGeometry width="50" height="50" relative="1" as="geometry">
            <mxPoint x="1150" y="610" as="sourcePoint" />
            <mxPoint x="1015" y="573" as="targetPoint" />
          </mxGeometry>
        </mxCell>
        <mxCell id="131" value="" style="endArrow=none;html=1;rounded=0;exitX=0.022;exitY=-0.003;exitDx=0;exitDy=0;exitPerimeter=0;" parent="1" source="114" edge="1">
          <mxGeometry width="50" height="50" relative="1" as="geometry">
            <mxPoint x="934" y="639" as="sourcePoint" />
            <mxPoint x="983.9999999999995" y="589" as="targetPoint" />
          </mxGeometry>
        </mxCell>
        <mxCell id="132" value="" style="endArrow=none;html=1;rounded=0;entryX=-0.014;entryY=0.417;entryDx=0;entryDy=0;entryPerimeter=0;" parent="1" target="114" edge="1">
          <mxGeometry width="50" height="50" relative="1" as="geometry">
            <mxPoint x="960" y="632" as="sourcePoint" />
            <mxPoint x="1010" y="582" as="targetPoint" />
          </mxGeometry>
        </mxCell>
        <mxCell id="133" value="" style="endArrow=none;html=1;rounded=0;entryX=0.25;entryY=1;entryDx=0;entryDy=0;" parent="1" target="114" edge="1">
          <mxGeometry width="50" height="50" relative="1" as="geometry">
            <mxPoint x="1030" y="687" as="sourcePoint" />
            <mxPoint x="1080" y="637" as="targetPoint" />
          </mxGeometry>
        </mxCell>
        <mxCell id="134" value="" style="endArrow=none;html=1;rounded=0;entryX=0.75;entryY=1;entryDx=0;entryDy=0;" parent="1" target="114" edge="1">
          <mxGeometry width="50" height="50" relative="1" as="geometry">
            <mxPoint x="1090" y="687" as="sourcePoint" />
            <mxPoint x="1140" y="637" as="targetPoint" />
          </mxGeometry>
        </mxCell>
        <mxCell id="135" value="" style="endArrow=none;html=1;rounded=0;exitX=1;exitY=0.5;exitDx=0;exitDy=0;entryX=0;entryY=0.5;entryDx=0;entryDy=0;" parent="1" source="114" target="136" edge="1">
          <mxGeometry width="50" height="50" relative="1" as="geometry">
            <mxPoint x="1170.48" y="650.52" as="sourcePoint" />
            <mxPoint x="1150" y="620" as="targetPoint" />
          </mxGeometry>
        </mxCell>
        <mxCell id="136" value="" style="ellipse;whiteSpace=wrap;html=1;aspect=fixed;" parent="1" vertex="1">
          <mxGeometry x="1150" y="631" width="10" height="10" as="geometry" />
        </mxCell>
        <mxCell id="144" value="" style="endArrow=none;html=1;entryX=0.5;entryY=0;entryDx=0;entryDy=0;exitX=0.5;exitY=1;exitDx=0;exitDy=0;" parent="1" source="114" target="GProfhIi8R3kbPbWlugL-20" edge="1">
          <mxGeometry width="50" height="50" relative="1" as="geometry">
            <mxPoint x="1180" y="740" as="sourcePoint" />
            <mxPoint x="1230" y="690" as="targetPoint" />
          </mxGeometry>
        </mxCell>
        <mxCell id="145" value="" style="endArrow=none;html=1;rounded=0;" parent="1" target="122" edge="1">
          <mxGeometry width="50" height="50" relative="1" as="geometry">
            <mxPoint x="1140" y="660" as="sourcePoint" />
            <mxPoint x="1119.31" y="657" as="targetPoint" />
          </mxGeometry>
        </mxCell>
        <mxCell id="122" value="" style="ellipse;whiteSpace=wrap;html=1;aspect=fixed;" parent="1" vertex="1">
          <mxGeometry x="1140" y="656" width="10" height="10" as="geometry" />
        </mxCell>
        <mxCell id="149" value="effettuati" style="shape=rhombus;perimeter=rhombusPerimeter;whiteSpace=wrap;html=1;align=center;" parent="1" vertex="1">
          <mxGeometry x="1000" y="470" width="120" height="60" as="geometry" />
        </mxCell>
        <mxCell id="150" value="" style="endArrow=none;html=1;entryX=0.5;entryY=0;entryDx=0;entryDy=0;exitX=0.5;exitY=1;exitDx=0;exitDy=0;" parent="1" source="Gjo6DUxktxaH3FMSYRhE-10" target="149" edge="1">
          <mxGeometry width="50" height="50" relative="1" as="geometry">
            <mxPoint x="1020" y="470" as="sourcePoint" />
            <mxPoint x="1070" y="420" as="targetPoint" />
          </mxGeometry>
        </mxCell>
        <mxCell id="151" value="" style="endArrow=none;html=1;entryX=0.5;entryY=1;entryDx=0;entryDy=0;exitX=0.5;exitY=0;exitDx=0;exitDy=0;" parent="1" source="114" target="149" edge="1">
          <mxGeometry width="50" height="50" relative="1" as="geometry">
            <mxPoint x="1030" y="590" as="sourcePoint" />
            <mxPoint x="1080" y="540" as="targetPoint" />
          </mxGeometry>
        </mxCell>
        <mxCell id="153" value="" style="endArrow=none;html=1;entryX=1;entryY=0.5;entryDx=0;entryDy=0;exitX=-0.001;exitY=0.334;exitDx=0;exitDy=0;exitPerimeter=0;" parent="1" source="Gjo6DUxktxaH3FMSYRhE-10" target="GProfhIi8R3kbPbWlugL-53" edge="1">
          <mxGeometry width="50" height="50" relative="1" as="geometry">
            <mxPoint x="940" y="380" as="sourcePoint" />
            <mxPoint x="990" y="330" as="targetPoint" />
          </mxGeometry>
        </mxCell>
        <mxCell id="157" value="" style="endArrow=none;html=1;rounded=0;exitX=0.585;exitY=-0.001;exitDx=0;exitDy=0;exitPerimeter=0;" parent="1" edge="1">
          <mxGeometry width="50" height="50" relative="1" as="geometry">
            <mxPoint x="153.70000000000005" y="439.99999999999994" as="sourcePoint" />
            <mxPoint x="153.5" y="422.0599999999999" as="targetPoint" />
          </mxGeometry>
        </mxCell>
        <mxCell id="158" value="reparto" style="text;html=1;align=center;verticalAlign=middle;resizable=0;points=[];autosize=1;strokeColor=none;fillColor=none;" parent="1" vertex="1">
          <mxGeometry x="137.5" y="386" width="60" height="30" as="geometry" />
        </mxCell>
        <mxCell id="159" value="" style="ellipse;whiteSpace=wrap;html=1;aspect=fixed;" parent="1" vertex="1">
          <mxGeometry x="150.5" y="412" width="10" height="10" as="geometry" />
        </mxCell>
        <mxCell id="174" value="" style="endArrow=none;html=1;entryX=1;entryY=1;entryDx=0;entryDy=0;startArrow=none;" parent="1" source="175" edge="1">
          <mxGeometry width="50" height="50" relative="1" as="geometry">
            <mxPoint x="170" y="1006" as="sourcePoint" />
            <mxPoint x="160" y="951" as="targetPoint" />
          </mxGeometry>
        </mxCell>
        <mxCell id="175" value="" style="ellipse;whiteSpace=wrap;html=1;aspect=fixed;" parent="1" vertex="1">
          <mxGeometry x="197.5" y="946" width="10" height="10" as="geometry" />
        </mxCell>
        <mxCell id="177" value="id sala" style="text;html=1;align=center;verticalAlign=middle;resizable=0;points=[];autosize=1;strokeColor=none;fillColor=none;" parent="1" vertex="1">
          <mxGeometry x="172.5" y="950" width="60" height="30" as="geometry" />
        </mxCell>
        <mxCell id="181" value="" style="endArrow=none;html=1;entryX=0;entryY=0.5;entryDx=0;entryDy=0;" parent="1" target="GProfhIi8R3kbPbWlugL-62" edge="1">
          <mxGeometry width="50" height="50" relative="1" as="geometry">
            <mxPoint x="100" y="1080" as="sourcePoint" />
            <mxPoint x="130" y="990" as="targetPoint" />
          </mxGeometry>
        </mxCell>
        <mxCell id="185" value="" style="endArrow=none;html=1;entryX=0.75;entryY=1;entryDx=0;entryDy=0;" parent="1" target="73" edge="1">
          <mxGeometry width="50" height="50" relative="1" as="geometry">
            <mxPoint x="-59" y="871" as="sourcePoint" />
            <mxPoint x="-59" y="846" as="targetPoint" />
          </mxGeometry>
        </mxCell>
        <mxCell id="73" value="" style="ellipse;whiteSpace=wrap;html=1;aspect=fixed;" parent="1" vertex="1">
          <mxGeometry x="-64" y="870.5" width="10" height="10" as="geometry" />
        </mxCell>
        <mxCell id="187" value="" style="endArrow=none;html=1;exitX=0.5;exitY=0;exitDx=0;exitDy=0;" parent="1" source="EqLmaS4XHGkuEMbsUwe7-198" edge="1">
          <mxGeometry width="50" height="50" relative="1" as="geometry">
            <mxPoint x="-129.23" y="866" as="sourcePoint" />
            <mxPoint x="-129.23" y="846" as="targetPoint" />
          </mxGeometry>
        </mxCell>
        <mxCell id="189" value="prescirzioni" style="shape=rhombus;perimeter=rhombusPerimeter;whiteSpace=wrap;html=1;align=center;" parent="1" vertex="1">
          <mxGeometry x="315" y="770" width="120" height="60" as="geometry" />
        </mxCell>
        <mxCell id="195" value="" style="endArrow=none;html=1;entryX=0.5;entryY=1;entryDx=0;entryDy=0;exitX=0.5;exitY=0;exitDx=0;exitDy=0;" parent="1" target="189" edge="1">
          <mxGeometry width="50" height="50" relative="1" as="geometry">
            <mxPoint x="375" y="886" as="sourcePoint" />
            <mxPoint x="420" y="830" as="targetPoint" />
          </mxGeometry>
        </mxCell>
        <mxCell id="198" value="" style="endArrow=none;html=1;" parent="1" edge="1">
          <mxGeometry width="50" height="50" relative="1" as="geometry">
            <mxPoint x="375" y="750" as="sourcePoint" />
            <mxPoint x="540" y="660" as="targetPoint" />
          </mxGeometry>
        </mxCell>
        <mxCell id="199" value="" style="endArrow=none;html=1;entryX=0.5;entryY=0;entryDx=0;entryDy=0;" parent="1" target="189" edge="1">
          <mxGeometry width="50" height="50" relative="1" as="geometry">
            <mxPoint x="375" y="750" as="sourcePoint" />
            <mxPoint x="520" y="740" as="targetPoint" />
          </mxGeometry>
        </mxCell>
        <mxCell id="200" value="" style="endArrow=none;html=1;exitX=0;exitY=1;exitDx=0;exitDy=0;" parent="1" source="Gjo6DUxktxaH3FMSYRhE-17" edge="1">
          <mxGeometry width="50" height="50" relative="1" as="geometry">
            <mxPoint x="530" y="710" as="sourcePoint" />
            <mxPoint x="540" y="660" as="targetPoint" />
          </mxGeometry>
        </mxCell>
        <mxCell id="203" value="" style="endArrow=none;html=1;entryX=0.5;entryY=0;entryDx=0;entryDy=0;exitX=0.5;exitY=1;exitDx=0;exitDy=0;" parent="1" source="Gjo6DUxktxaH3FMSYRhE-11" target="GProfhIi8R3kbPbWlugL-16" edge="1">
          <mxGeometry width="50" height="50" relative="1" as="geometry">
            <mxPoint x="-90" y="850" as="sourcePoint" />
            <mxPoint x="-89" y="716" as="targetPoint" />
          </mxGeometry>
        </mxCell>
        <mxCell id="205" value="" style="endArrow=none;html=1;entryX=0;entryY=0.5;entryDx=0;entryDy=0;exitX=1;exitY=0.5;exitDx=0;exitDy=0;" parent="1" source="GProfhIi8R3kbPbWlugL-16" target="52" edge="1">
          <mxGeometry width="50" height="50" relative="1" as="geometry">
            <mxPoint x="-80" y="920" as="sourcePoint" />
            <mxPoint x="-30" y="870" as="targetPoint" />
          </mxGeometry>
        </mxCell>
        <mxCell id="206" value="" style="endArrow=none;html=1;entryX=0.5;entryY=1;entryDx=0;entryDy=0;" parent="1" target="52" edge="1">
          <mxGeometry width="50" height="50" relative="1" as="geometry">
            <mxPoint x="100" y="1080" as="sourcePoint" />
            <mxPoint x="110" y="1005" as="targetPoint" />
          </mxGeometry>
        </mxCell>
        <mxCell id="210" value="" style="endArrow=none;html=1;entryX=0.5;entryY=1;entryDx=0;entryDy=0;exitX=0.5;exitY=0;exitDx=0;exitDy=0;" parent="1" source="Gjo6DUxktxaH3FMSYRhE-1" target="GProfhIi8R3kbPbWlugL-11" edge="1">
          <mxGeometry width="50" height="50" relative="1" as="geometry">
            <mxPoint x="50" y="420" as="sourcePoint" />
            <mxPoint x="100" y="370" as="targetPoint" />
          </mxGeometry>
        </mxCell>
        <mxCell id="qg36Dtnbnzo8HtIBdb9m-210" value="" style="ellipse;whiteSpace=wrap;html=1;aspect=fixed;" vertex="1" parent="1">
          <mxGeometry x="740" y="616" width="10" height="10" as="geometry" />
        </mxCell>
        <mxCell id="qg36Dtnbnzo8HtIBdb9m-211" value="farmaco f.k." style="text;html=1;align=center;verticalAlign=middle;resizable=0;points=[];autosize=1;strokeColor=none;fillColor=none;" vertex="1" parent="1">
          <mxGeometry x="738" y="605" width="90" height="30" as="geometry" />
        </mxCell>
        <mxCell id="qg36Dtnbnzo8HtIBdb9m-212" value="" style="endArrow=none;html=1;rounded=0;entryX=0.027;entryY=0.545;entryDx=0;entryDy=0;entryPerimeter=0;" edge="1" parent="1" target="qg36Dtnbnzo8HtIBdb9m-211">
          <mxGeometry width="50" height="50" relative="1" as="geometry">
            <mxPoint x="720" y="626" as="sourcePoint" />
            <mxPoint x="741" y="605" as="targetPoint" />
          </mxGeometry>
        </mxCell>
        <mxCell id="qg36Dtnbnzo8HtIBdb9m-213" value="c.f." style="text;html=1;align=center;verticalAlign=middle;resizable=0;points=[];autosize=1;strokeColor=none;fillColor=none;" vertex="1" parent="1">
          <mxGeometry x="110.5" y="1008" width="40" height="30" as="geometry" />
        </mxCell>
        <mxCell id="qg36Dtnbnzo8HtIBdb9m-214" value="" style="ellipse;whiteSpace=wrap;html=1;aspect=fixed;" vertex="1" parent="1">
          <mxGeometry x="180" y="893" width="10" height="10" as="geometry" />
        </mxCell>
        <mxCell id="qg36Dtnbnzo8HtIBdb9m-215" value="" style="endArrow=none;html=1;entryX=1;entryY=1;entryDx=0;entryDy=0;startArrow=none;exitX=0;exitY=1;exitDx=0;exitDy=0;" edge="1" parent="1" source="qg36Dtnbnzo8HtIBdb9m-214">
          <mxGeometry width="50" height="50" relative="1" as="geometry">
            <mxPoint x="197" y="923" as="sourcePoint" />
            <mxPoint x="160" y="923" as="targetPoint" />
          </mxGeometry>
        </mxCell>
        <mxCell id="qg36Dtnbnzo8HtIBdb9m-216" value="paziente&lt;div&gt;&amp;nbsp;f.k.&lt;div&gt;&lt;br&gt;&lt;/div&gt;&lt;/div&gt;" style="text;html=1;align=center;verticalAlign=middle;resizable=0;points=[];autosize=1;strokeColor=none;fillColor=none;" vertex="1" parent="1">
          <mxGeometry x="573" y="686" width="70" height="60" as="geometry" />
        </mxCell>
        <mxCell id="qg36Dtnbnzo8HtIBdb9m-218" value="" style="ellipse;whiteSpace=wrap;html=1;aspect=fixed;" vertex="1" parent="1">
          <mxGeometry x="605" y="682" width="10" height="10" as="geometry" />
        </mxCell>
        <mxCell id="qg36Dtnbnzo8HtIBdb9m-219" value="" style="endArrow=none;html=1;rounded=0;exitX=0.5;exitY=0;exitDx=0;exitDy=0;entryX=0.093;entryY=1.009;entryDx=0;entryDy=0;entryPerimeter=0;" edge="1" parent="1" target="Gjo6DUxktxaH3FMSYRhE-17">
          <mxGeometry width="50" height="50" relative="1" as="geometry">
            <mxPoint x="609.5" y="682" as="sourcePoint" />
            <mxPoint x="610.5" y="664" as="targetPoint" />
          </mxGeometry>
        </mxCell>
      </root>
    </mxGraphModel>
  </diagram>
</mxfile>
